<mxfile host="app.diagrams.net" modified="2021-10-16T07:05:23.187Z" agent="5.0 (Macintosh; Intel Mac OS X 10_15_7) AppleWebKit/537.36 (KHTML, like Gecko) Chrome/94.0.4606.81 Safari/537.36" etag="maNS3v2grwaedGcjELeZ" version="15.5.4" type="github">
  <diagram id="OjK8r2xayaSwBUzU3Jj6" name="Page-1">
    <mxGraphModel dx="532" dy="428" grid="1" gridSize="10" guides="1" tooltips="1" connect="1" arrows="1" fold="1" page="1" pageScale="1" pageWidth="827" pageHeight="1169" math="0" shadow="0">
      <root>
        <mxCell id="0" />
        <mxCell id="1" parent="0" />
        <mxCell id="-BRa6T81mQSPYxDjVcSn-41" value="" style="shape=table;html=1;whiteSpace=wrap;startSize=0;container=1;collapsible=0;childLayout=tableLayout;fontFamily=Helvetica;fontSize=16;" vertex="1" parent="1">
          <mxGeometry x="140" y="90" width="240" height="160" as="geometry" />
        </mxCell>
        <mxCell id="-BRa6T81mQSPYxDjVcSn-42" value="" style="shape=partialRectangle;html=1;whiteSpace=wrap;collapsible=0;dropTarget=0;pointerEvents=0;fillColor=none;top=0;left=0;bottom=0;right=0;points=[[0,0.5],[1,0.5]];portConstraint=eastwest;fontFamily=Helvetica;fontSize=16;" vertex="1" parent="-BRa6T81mQSPYxDjVcSn-41">
          <mxGeometry width="240" height="40" as="geometry" />
        </mxCell>
        <mxCell id="-BRa6T81mQSPYxDjVcSn-43" value="" style="shape=partialRectangle;html=1;whiteSpace=wrap;connectable=0;fillColor=none;top=0;left=0;bottom=0;right=0;overflow=hidden;pointerEvents=1;fontFamily=Helvetica;fontSize=16;" vertex="1" parent="-BRa6T81mQSPYxDjVcSn-42">
          <mxGeometry width="60" height="40" as="geometry">
            <mxRectangle width="60" height="40" as="alternateBounds" />
          </mxGeometry>
        </mxCell>
        <mxCell id="-BRa6T81mQSPYxDjVcSn-44" value="" style="shape=partialRectangle;html=1;whiteSpace=wrap;connectable=0;fillColor=none;top=0;left=0;bottom=0;right=0;overflow=hidden;pointerEvents=1;fontFamily=Helvetica;fontSize=16;" vertex="1" parent="-BRa6T81mQSPYxDjVcSn-42">
          <mxGeometry x="60" width="60" height="40" as="geometry">
            <mxRectangle width="60" height="40" as="alternateBounds" />
          </mxGeometry>
        </mxCell>
        <mxCell id="-BRa6T81mQSPYxDjVcSn-45" value="" style="shape=partialRectangle;html=1;whiteSpace=wrap;connectable=0;fillColor=none;top=0;left=0;bottom=0;right=0;overflow=hidden;pointerEvents=1;fontFamily=Helvetica;fontSize=16;" vertex="1" parent="-BRa6T81mQSPYxDjVcSn-42">
          <mxGeometry x="120" width="60" height="40" as="geometry">
            <mxRectangle width="60" height="40" as="alternateBounds" />
          </mxGeometry>
        </mxCell>
        <mxCell id="-BRa6T81mQSPYxDjVcSn-54" style="shape=partialRectangle;html=1;whiteSpace=wrap;connectable=0;fillColor=none;top=0;left=0;bottom=0;right=0;overflow=hidden;pointerEvents=1;fontFamily=Helvetica;fontSize=16;" vertex="1" parent="-BRa6T81mQSPYxDjVcSn-42">
          <mxGeometry x="180" width="60" height="40" as="geometry">
            <mxRectangle width="60" height="40" as="alternateBounds" />
          </mxGeometry>
        </mxCell>
        <mxCell id="-BRa6T81mQSPYxDjVcSn-46" value="" style="shape=partialRectangle;html=1;whiteSpace=wrap;collapsible=0;dropTarget=0;pointerEvents=0;fillColor=none;top=0;left=0;bottom=0;right=0;points=[[0,0.5],[1,0.5]];portConstraint=eastwest;fontFamily=Helvetica;fontSize=16;" vertex="1" parent="-BRa6T81mQSPYxDjVcSn-41">
          <mxGeometry y="40" width="240" height="40" as="geometry" />
        </mxCell>
        <mxCell id="-BRa6T81mQSPYxDjVcSn-47" value="" style="shape=partialRectangle;html=1;whiteSpace=wrap;connectable=0;fillColor=none;top=0;left=0;bottom=0;right=0;overflow=hidden;pointerEvents=1;fontFamily=Helvetica;fontSize=16;" vertex="1" parent="-BRa6T81mQSPYxDjVcSn-46">
          <mxGeometry width="60" height="40" as="geometry">
            <mxRectangle width="60" height="40" as="alternateBounds" />
          </mxGeometry>
        </mxCell>
        <mxCell id="-BRa6T81mQSPYxDjVcSn-48" value="" style="shape=partialRectangle;html=1;whiteSpace=wrap;connectable=0;fillColor=none;top=0;left=0;bottom=0;right=0;overflow=hidden;pointerEvents=1;fontFamily=Helvetica;fontSize=16;" vertex="1" parent="-BRa6T81mQSPYxDjVcSn-46">
          <mxGeometry x="60" width="60" height="40" as="geometry">
            <mxRectangle width="60" height="40" as="alternateBounds" />
          </mxGeometry>
        </mxCell>
        <mxCell id="-BRa6T81mQSPYxDjVcSn-49" value="" style="shape=partialRectangle;html=1;whiteSpace=wrap;connectable=0;fillColor=none;top=0;left=0;bottom=0;right=0;overflow=hidden;pointerEvents=1;fontFamily=Helvetica;fontSize=16;" vertex="1" parent="-BRa6T81mQSPYxDjVcSn-46">
          <mxGeometry x="120" width="60" height="40" as="geometry">
            <mxRectangle width="60" height="40" as="alternateBounds" />
          </mxGeometry>
        </mxCell>
        <mxCell id="-BRa6T81mQSPYxDjVcSn-55" style="shape=partialRectangle;html=1;whiteSpace=wrap;connectable=0;fillColor=none;top=0;left=0;bottom=0;right=0;overflow=hidden;pointerEvents=1;fontFamily=Helvetica;fontSize=16;" vertex="1" parent="-BRa6T81mQSPYxDjVcSn-46">
          <mxGeometry x="180" width="60" height="40" as="geometry">
            <mxRectangle width="60" height="40" as="alternateBounds" />
          </mxGeometry>
        </mxCell>
        <mxCell id="-BRa6T81mQSPYxDjVcSn-50" value="" style="shape=partialRectangle;html=1;whiteSpace=wrap;collapsible=0;dropTarget=0;pointerEvents=0;fillColor=none;top=0;left=0;bottom=0;right=0;points=[[0,0.5],[1,0.5]];portConstraint=eastwest;fontFamily=Helvetica;fontSize=16;" vertex="1" parent="-BRa6T81mQSPYxDjVcSn-41">
          <mxGeometry y="80" width="240" height="40" as="geometry" />
        </mxCell>
        <mxCell id="-BRa6T81mQSPYxDjVcSn-51" value="" style="shape=partialRectangle;html=1;whiteSpace=wrap;connectable=0;fillColor=none;top=0;left=0;bottom=0;right=0;overflow=hidden;pointerEvents=1;fontFamily=Helvetica;fontSize=16;" vertex="1" parent="-BRa6T81mQSPYxDjVcSn-50">
          <mxGeometry width="60" height="40" as="geometry">
            <mxRectangle width="60" height="40" as="alternateBounds" />
          </mxGeometry>
        </mxCell>
        <mxCell id="-BRa6T81mQSPYxDjVcSn-52" value="" style="shape=partialRectangle;html=1;whiteSpace=wrap;connectable=0;fillColor=none;top=0;left=0;bottom=0;right=0;overflow=hidden;pointerEvents=1;fontFamily=Helvetica;fontSize=16;" vertex="1" parent="-BRa6T81mQSPYxDjVcSn-50">
          <mxGeometry x="60" width="60" height="40" as="geometry">
            <mxRectangle width="60" height="40" as="alternateBounds" />
          </mxGeometry>
        </mxCell>
        <mxCell id="-BRa6T81mQSPYxDjVcSn-53" value="" style="shape=partialRectangle;html=1;whiteSpace=wrap;connectable=0;fillColor=none;top=0;left=0;bottom=0;right=0;overflow=hidden;pointerEvents=1;fontFamily=Helvetica;fontSize=16;" vertex="1" parent="-BRa6T81mQSPYxDjVcSn-50">
          <mxGeometry x="120" width="60" height="40" as="geometry">
            <mxRectangle width="60" height="40" as="alternateBounds" />
          </mxGeometry>
        </mxCell>
        <mxCell id="-BRa6T81mQSPYxDjVcSn-56" style="shape=partialRectangle;html=1;whiteSpace=wrap;connectable=0;fillColor=none;top=0;left=0;bottom=0;right=0;overflow=hidden;pointerEvents=1;fontFamily=Helvetica;fontSize=16;" vertex="1" parent="-BRa6T81mQSPYxDjVcSn-50">
          <mxGeometry x="180" width="60" height="40" as="geometry">
            <mxRectangle width="60" height="40" as="alternateBounds" />
          </mxGeometry>
        </mxCell>
        <mxCell id="-BRa6T81mQSPYxDjVcSn-57" style="shape=partialRectangle;html=1;whiteSpace=wrap;collapsible=0;dropTarget=0;pointerEvents=0;fillColor=none;top=0;left=0;bottom=0;right=0;points=[[0,0.5],[1,0.5]];portConstraint=eastwest;fontFamily=Helvetica;fontSize=16;" vertex="1" parent="-BRa6T81mQSPYxDjVcSn-41">
          <mxGeometry y="120" width="240" height="40" as="geometry" />
        </mxCell>
        <mxCell id="-BRa6T81mQSPYxDjVcSn-58" style="shape=partialRectangle;html=1;whiteSpace=wrap;connectable=0;fillColor=none;top=0;left=0;bottom=0;right=0;overflow=hidden;pointerEvents=1;fontFamily=Helvetica;fontSize=16;" vertex="1" parent="-BRa6T81mQSPYxDjVcSn-57">
          <mxGeometry width="60" height="40" as="geometry">
            <mxRectangle width="60" height="40" as="alternateBounds" />
          </mxGeometry>
        </mxCell>
        <mxCell id="-BRa6T81mQSPYxDjVcSn-59" style="shape=partialRectangle;html=1;whiteSpace=wrap;connectable=0;fillColor=none;top=0;left=0;bottom=0;right=0;overflow=hidden;pointerEvents=1;fontFamily=Helvetica;fontSize=16;" vertex="1" parent="-BRa6T81mQSPYxDjVcSn-57">
          <mxGeometry x="60" width="60" height="40" as="geometry">
            <mxRectangle width="60" height="40" as="alternateBounds" />
          </mxGeometry>
        </mxCell>
        <mxCell id="-BRa6T81mQSPYxDjVcSn-60" style="shape=partialRectangle;html=1;whiteSpace=wrap;connectable=0;fillColor=none;top=0;left=0;bottom=0;right=0;overflow=hidden;pointerEvents=1;fontFamily=Helvetica;fontSize=16;" vertex="1" parent="-BRa6T81mQSPYxDjVcSn-57">
          <mxGeometry x="120" width="60" height="40" as="geometry">
            <mxRectangle width="60" height="40" as="alternateBounds" />
          </mxGeometry>
        </mxCell>
        <mxCell id="-BRa6T81mQSPYxDjVcSn-61" style="shape=partialRectangle;html=1;whiteSpace=wrap;connectable=0;fillColor=none;top=0;left=0;bottom=0;right=0;overflow=hidden;pointerEvents=1;fontFamily=Helvetica;fontSize=16;" vertex="1" parent="-BRa6T81mQSPYxDjVcSn-57">
          <mxGeometry x="180" width="60" height="40" as="geometry">
            <mxRectangle width="60" height="40" as="alternateBounds" />
          </mxGeometry>
        </mxCell>
        <mxCell id="jmamQArgGEQ1hFl3yV5m-22" value="" style="endArrow=classic;html=1;rounded=0;" parent="1" edge="1">
          <mxGeometry width="50" height="50" relative="1" as="geometry">
            <mxPoint x="120" y="60" as="sourcePoint" />
            <mxPoint x="410" y="60" as="targetPoint" />
          </mxGeometry>
        </mxCell>
        <mxCell id="jmamQArgGEQ1hFl3yV5m-23" value="" style="endArrow=classic;html=1;rounded=0;" parent="1" edge="1">
          <mxGeometry width="50" height="50" relative="1" as="geometry">
            <mxPoint x="110" y="70" as="sourcePoint" />
            <mxPoint x="110" y="270" as="targetPoint" />
          </mxGeometry>
        </mxCell>
        <mxCell id="jmamQArgGEQ1hFl3yV5m-24" value="コンポーネントID" style="text;html=1;strokeColor=none;fillColor=none;align=center;verticalAlign=middle;whiteSpace=wrap;rounded=0;" parent="1" vertex="1">
          <mxGeometry x="30" y="270" width="110" height="30" as="geometry" />
        </mxCell>
        <mxCell id="jmamQArgGEQ1hFl3yV5m-25" value="スタイルID" style="text;html=1;strokeColor=none;fillColor=none;align=center;verticalAlign=middle;whiteSpace=wrap;rounded=0;" parent="1" vertex="1">
          <mxGeometry x="340" y="30" width="80" height="30" as="geometry" />
        </mxCell>
        <mxCell id="jmamQArgGEQ1hFl3yV5m-26" value="木" style="text;strokeColor=none;fillColor=none;align=left;verticalAlign=middle;spacingLeft=4;spacingRight=4;overflow=hidden;points=[[0,0.5],[1,0.5]];portConstraint=eastwest;rotatable=0;fontSize=30;fontFamily=源ノ明朝 JP;;fontSource=https%3A%2F%2Ffonts.googleapis.com%2Fcss%3Ffamily%3D%25E6%25BA%2590%25E3%2583%258E%25E6%2598%258E%25E6%259C%259D%2BJP;" parent="1" vertex="1">
          <mxGeometry x="150" y="90" width="40" height="40" as="geometry" />
        </mxCell>
        <mxCell id="jmamQArgGEQ1hFl3yV5m-27" value="木" style="text;strokeColor=none;fillColor=none;align=left;verticalAlign=middle;spacingLeft=4;spacingRight=4;overflow=hidden;points=[[0,0.5],[1,0.5]];portConstraint=eastwest;rotatable=0;fontSize=30;fontFamily=ロックンロール One;;fontSource=https%3A%2F%2Ffonts.googleapis.com%2Fcss%3Ffamily%3D%25E3%2583%25AD%25E3%2583%2583%25E3%2582%25AF%25E3%2583%25B3%25E3%2583%25AD%25E3%2583%25BC%25E3%2583%25AB%2BOne;" parent="1" vertex="1">
          <mxGeometry x="210" y="90" width="40" height="40" as="geometry" />
        </mxCell>
        <mxCell id="jmamQArgGEQ1hFl3yV5m-28" value="木" style="text;strokeColor=none;fillColor=none;align=left;verticalAlign=middle;spacingLeft=4;spacingRight=4;overflow=hidden;points=[[0,0.5],[1,0.5]];portConstraint=eastwest;rotatable=0;fontSize=30;fontFamily=ドットゴシック16;;fontSource=https%3A%2F%2Ffonts.googleapis.com%2Fcss%3Ffamily%3D%25E3%2583%2589%25E3%2583%2583%25E3%2583%2588%25E3%2582%25B4%25E3%2582%25B7%25E3%2583%2583%25E3%2582%25AF16;" parent="1" vertex="1">
          <mxGeometry x="270" y="90" width="40" height="40" as="geometry" />
        </mxCell>
        <mxCell id="jmamQArgGEQ1hFl3yV5m-29" value="木" style="text;strokeColor=none;fillColor=none;align=left;verticalAlign=middle;spacingLeft=4;spacingRight=4;overflow=hidden;points=[[0,0.5],[1,0.5]];portConstraint=eastwest;rotatable=0;fontSize=30;fontFamily=MotoyaLMaru;;fontSource=https%3A%2F%2Ffonts.googleapis.com%2Fcss%3Ffamily%3DMotoyaLMaru;" parent="1" vertex="1">
          <mxGeometry x="330" y="90" width="40" height="40" as="geometry" />
        </mxCell>
        <mxCell id="-BRa6T81mQSPYxDjVcSn-1" value="才" style="text;strokeColor=none;fillColor=none;align=left;verticalAlign=middle;spacingLeft=4;spacingRight=4;overflow=hidden;points=[[0,0.5],[1,0.5]];portConstraint=eastwest;rotatable=0;fontSize=30;fontFamily=源ノ明朝 JP;;fontSource=https%3A%2F%2Ffonts.googleapis.com%2Fcss%3Ffamily%3D%25E6%25BA%2590%25E3%2583%258E%25E6%2598%258E%25E6%259C%259D%2BJP;" vertex="1" parent="1">
          <mxGeometry x="150" y="130" width="40" height="40" as="geometry" />
        </mxCell>
        <mxCell id="-BRa6T81mQSPYxDjVcSn-2" value="才" style="text;strokeColor=none;fillColor=none;align=left;verticalAlign=middle;spacingLeft=4;spacingRight=4;overflow=hidden;points=[[0,0.5],[1,0.5]];portConstraint=eastwest;rotatable=0;fontSize=30;fontFamily=ロックンロール One;;fontSource=https%3A%2F%2Ffonts.googleapis.com%2Fcss%3Ffamily%3D%25E3%2583%25AD%25E3%2583%2583%25E3%2582%25AF%25E3%2583%25B3%25E3%2583%25AD%25E3%2583%25BC%25E3%2583%25AB%2BOne;" vertex="1" parent="1">
          <mxGeometry x="210" y="130" width="40" height="40" as="geometry" />
        </mxCell>
        <mxCell id="-BRa6T81mQSPYxDjVcSn-3" value="才" style="text;strokeColor=none;fillColor=none;align=left;verticalAlign=middle;spacingLeft=4;spacingRight=4;overflow=hidden;points=[[0,0.5],[1,0.5]];portConstraint=eastwest;rotatable=0;fontSize=30;fontFamily=ドットゴシック16;;fontSource=https%3A%2F%2Ffonts.googleapis.com%2Fcss%3Ffamily%3D%25E3%2583%2589%25E3%2583%2583%25E3%2583%2588%25E3%2582%25B4%25E3%2582%25B7%25E3%2583%2583%25E3%2582%25AF16;" vertex="1" parent="1">
          <mxGeometry x="270" y="129" width="40" height="40" as="geometry" />
        </mxCell>
        <mxCell id="-BRa6T81mQSPYxDjVcSn-4" value="才" style="text;strokeColor=none;fillColor=none;align=left;verticalAlign=middle;spacingLeft=4;spacingRight=4;overflow=hidden;points=[[0,0.5],[1,0.5]];portConstraint=eastwest;rotatable=0;fontSize=30;fontFamily=MotoyaLMaru;;fontSource=https%3A%2F%2Ffonts.googleapis.com%2Fcss%3Ffamily%3DMotoyaLMaru;" vertex="1" parent="1">
          <mxGeometry x="330" y="130" width="40" height="40" as="geometry" />
        </mxCell>
        <mxCell id="-BRa6T81mQSPYxDjVcSn-5" value="貝" style="text;strokeColor=none;fillColor=none;align=left;verticalAlign=middle;spacingLeft=4;spacingRight=4;overflow=hidden;points=[[0,0.5],[1,0.5]];portConstraint=eastwest;rotatable=0;fontSize=30;fontFamily=源ノ明朝 JP;;fontSource=https%3A%2F%2Ffonts.googleapis.com%2Fcss%3Ffamily%3D%25E6%25BA%2590%25E3%2583%258E%25E6%2598%258E%25E6%259C%259D%2BJP;" vertex="1" parent="1">
          <mxGeometry x="150" y="170" width="40" height="40" as="geometry" />
        </mxCell>
        <mxCell id="-BRa6T81mQSPYxDjVcSn-6" value="貝" style="text;strokeColor=none;fillColor=none;align=left;verticalAlign=middle;spacingLeft=4;spacingRight=4;overflow=hidden;points=[[0,0.5],[1,0.5]];portConstraint=eastwest;rotatable=0;fontSize=30;fontFamily=ロックンロール One;;fontSource=https%3A%2F%2Ffonts.googleapis.com%2Fcss%3Ffamily%3D%25E3%2583%25AD%25E3%2583%2583%25E3%2582%25AF%25E3%2583%25B3%25E3%2583%25AD%25E3%2583%25BC%25E3%2583%25AB%2BOne;" vertex="1" parent="1">
          <mxGeometry x="210" y="170" width="40" height="40" as="geometry" />
        </mxCell>
        <mxCell id="-BRa6T81mQSPYxDjVcSn-7" value="貝" style="text;strokeColor=none;fillColor=none;align=left;verticalAlign=middle;spacingLeft=4;spacingRight=4;overflow=hidden;points=[[0,0.5],[1,0.5]];portConstraint=eastwest;rotatable=0;fontSize=30;fontFamily=ドットゴシック16;;fontSource=https%3A%2F%2Ffonts.googleapis.com%2Fcss%3Ffamily%3D%25E3%2583%2589%25E3%2583%2583%25E3%2583%2588%25E3%2582%25B4%25E3%2582%25B7%25E3%2583%2583%25E3%2582%25AF16;" vertex="1" parent="1">
          <mxGeometry x="270" y="170" width="40" height="40" as="geometry" />
        </mxCell>
        <mxCell id="-BRa6T81mQSPYxDjVcSn-8" value="貝" style="text;strokeColor=none;fillColor=none;align=left;verticalAlign=middle;spacingLeft=4;spacingRight=4;overflow=hidden;points=[[0,0.5],[1,0.5]];portConstraint=eastwest;rotatable=0;fontSize=30;fontFamily=MotoyaLMaru;;fontSource=https%3A%2F%2Ffonts.googleapis.com%2Fcss%3Ffamily%3DMotoyaLMaru;" vertex="1" parent="1">
          <mxGeometry x="330" y="170" width="40" height="40" as="geometry" />
        </mxCell>
        <mxCell id="-BRa6T81mQSPYxDjVcSn-9" value="冓" style="text;strokeColor=none;fillColor=none;align=left;verticalAlign=middle;spacingLeft=4;spacingRight=4;overflow=hidden;points=[[0,0.5],[1,0.5]];portConstraint=eastwest;rotatable=0;fontSize=30;fontFamily=源ノ明朝 JP;;fontSource=https%3A%2F%2Ffonts.googleapis.com%2Fcss%3Ffamily%3D%25E6%25BA%2590%25E3%2583%258E%25E6%2598%258E%25E6%259C%259D%2BJP;" vertex="1" parent="1">
          <mxGeometry x="150" y="210" width="40" height="40" as="geometry" />
        </mxCell>
        <mxCell id="-BRa6T81mQSPYxDjVcSn-10" value="冓" style="text;strokeColor=none;fillColor=none;align=left;verticalAlign=middle;spacingLeft=4;spacingRight=4;overflow=hidden;points=[[0,0.5],[1,0.5]];portConstraint=eastwest;rotatable=0;fontSize=30;fontFamily=ロックンロール One;;fontSource=https%3A%2F%2Ffonts.googleapis.com%2Fcss%3Ffamily%3D%25E3%2583%25AD%25E3%2583%2583%25E3%2582%25AF%25E3%2583%25B3%25E3%2583%25AD%25E3%2583%25BC%25E3%2583%25AB%2BOne;" vertex="1" parent="1">
          <mxGeometry x="210" y="210" width="40" height="40" as="geometry" />
        </mxCell>
        <mxCell id="-BRa6T81mQSPYxDjVcSn-11" value="冓" style="text;strokeColor=none;fillColor=none;align=left;verticalAlign=middle;spacingLeft=4;spacingRight=4;overflow=hidden;points=[[0,0.5],[1,0.5]];portConstraint=eastwest;rotatable=0;fontSize=30;fontFamily=ドットゴシック16;;fontSource=https%3A%2F%2Ffonts.googleapis.com%2Fcss%3Ffamily%3D%25E3%2583%2589%25E3%2583%2583%25E3%2583%2588%25E3%2582%25B4%25E3%2582%25B7%25E3%2583%2583%25E3%2582%25AF16;" vertex="1" parent="1">
          <mxGeometry x="270" y="210" width="40" height="40" as="geometry" />
        </mxCell>
        <mxCell id="-BRa6T81mQSPYxDjVcSn-12" value="冓" style="text;strokeColor=none;fillColor=none;align=left;verticalAlign=middle;spacingLeft=4;spacingRight=4;overflow=hidden;points=[[0,0.5],[1,0.5]];portConstraint=eastwest;rotatable=0;fontSize=30;fontFamily=MotoyaLMaru;;fontSource=https%3A%2F%2Ffonts.googleapis.com%2Fcss%3Ffamily%3DMotoyaLMaru;" vertex="1" parent="1">
          <mxGeometry x="330" y="210" width="40" height="40" as="geometry" />
        </mxCell>
        <mxCell id="-BRa6T81mQSPYxDjVcSn-14" value="&lt;font style=&quot;font-size: 20px&quot;&gt;材,杣,杉,松,梅&lt;/font&gt;" style="shape=callout;whiteSpace=wrap;html=1;perimeter=calloutPerimeter;fontFamily=MotoyaLMaru;fontSource=https%3A%2F%2Ffonts.googleapis.com%2Fcss%3Ffamily%3DMotoyaLMaru;fontSize=30;flipV=1;size=30;position=0.16;position2=0;" vertex="1" parent="1">
          <mxGeometry x="370" y="110" width="160" height="69" as="geometry" />
        </mxCell>
        <mxCell id="-BRa6T81mQSPYxDjVcSn-15" value="の特徴の平均として&#xa;「木」が得られる。" style="text;strokeColor=none;fillColor=none;align=left;verticalAlign=middle;spacingLeft=4;spacingRight=4;overflow=hidden;points=[[0,0.5],[1,0.5]];portConstraint=eastwest;rotatable=0;fontFamily=Helvetica;fontSize=16;" vertex="1" parent="1">
          <mxGeometry x="390" y="190" width="160" height="40" as="geometry" />
        </mxCell>
      </root>
    </mxGraphModel>
  </diagram>
</mxfile>
